<svg width="28" height="23" viewBox="0 0 28 23" fill="none" xmlns="http://www.w3.org/2000/svg">
<path fill-rule="evenodd" clip-rule="evenodd" d="M16.3074 0.625C22.4904 0.625 27.5 5.61518 27.5 11.7686C27.5 17.9277 22.4904 22.9179 16.3074 22.9179C14.3949 22.9179 12.5897 22.4346 11.0157 21.5916V15.3595H8.96789C8.54478 15.3595 8.29092 15.1123 8.29656 14.6964V3.99674C10.3275 1.9175 13.1651 0.625 16.3074 0.625ZM0.500099 1.1982H7.19648V14.6402C7.19084 16.3767 8.02577 16.4497 9.92129 16.4497V22.4795C4.31935 22.4795 0.477533 22.9572 0.500099 17.3489V1.1982ZM16.3074 6.77843C19.0773 6.77843 21.3226 9.01502 21.3226 11.7686C21.3226 14.5278 19.0773 16.7644 16.3074 16.7644C13.5431 16.7644 11.2978 14.5278 11.2978 11.7686C11.2978 9.01502 13.5431 6.77843 16.3074 6.77843Z" fill="#009EFC"/>
</svg>
